<svg width="20" height="15" viewBox="0 0 20 15" fill="none" xmlns="http://www.w3.org/2000/svg">
<path d="M0.230769 8.25C0.0769231 8.1 0 7.875 0 7.725C0 7.575 0.0769231 7.35 0.230769 7.2L1.30769 6.15C1.61538 5.85 2.07692 5.85 2.38462 6.15L2.46154 6.225L6.69231 10.65C6.84615 10.8 7.07692 10.8 7.23077 10.65L17.5385 0.225H17.6154C17.9231 -0.075 18.3846 -0.075 18.6923 0.225L19.7692 1.275C20.0769 1.575 20.0769 2.025 19.7692 2.325L7.46154 14.775C7.30769 14.925 7.15385 15 6.92308 15C6.69231 15 6.53846 14.925 6.38462 14.775L0.384615 8.475L0.230769 8.25Z" fill="#7ED321"/>
</svg>
