<svg width="20" height="20" viewBox="0 0 20 20" fill="none" xmlns="http://www.w3.org/2000/svg">
<path d="M8.99346 13C8.44447 13 8 13.4545 8 14C8 14.5325 8.43138 15 8.99346 15C9.55553 15 10 14.5325 10 14C10 13.4545 9.54252 13 8.99346 13Z" fill="#616F7C"/>
<path d="M9.40242 5C7.75608 5 7 6.08946 7 6.82488C7 7.35603 7.40241 7.60116 7.7317 7.60116C8.39021 7.60116 8.12193 6.55252 9.36583 6.55252C9.9756 6.55252 10.4634 6.85215 10.4634 7.4786C10.4634 8.21405 9.78048 8.6362 9.37804 9.01752C9.0244 9.35798 8.56097 9.91636 8.56097 11.0876C8.56097 11.7957 8.73167 12 9.23169 12C9.82925 12 9.95118 11.7004 9.95118 11.4417C9.95118 10.7335 9.96343 10.3249 10.6341 9.73934C10.9634 9.45334 12 8.52727 12 7.24711C12 5.96694 10.9634 5 9.40242 5Z" fill="#616F7C"/>
<path fill-rule="evenodd" clip-rule="evenodd" d="M0 10C0 4.47254 4.47328 0 10 0C15.5275 0 20 4.47328 20 10C20 15.5275 15.5267 20 10 20H0.78125C0.349766 20 0 19.6502 0 19.2188V10ZM1.5625 18.4375H10C14.6638 18.4375 18.4375 14.6632 18.4375 10C18.4375 5.33621 14.6632 1.5625 10 1.5625C5.33621 1.5625 1.5625 5.33684 1.5625 10V18.4375Z" fill="#616F7C"/>
</svg>
