<svg width="23" height="29" viewBox="0 0 23 29" fill="none" xmlns="http://www.w3.org/2000/svg">
<path fill-rule="evenodd" clip-rule="evenodd" d="M12 22.5385C12 22.7933 11.7761 23 11.5 23C11.2239 23 11 22.7933 11 22.5385V17.4615C11 17.2067 11.2239 17 11.5 17H13.5C13.7761 17 14 17.2067 14 17.4615V19.7692C14 20.0241 13.7761 20.2308 13.5 20.2308H12V22.5385ZM13 17.9231H12V19.3077H13V17.9231Z" fill="#2081DA"/>
<path fill-rule="evenodd" clip-rule="evenodd" d="M17 23H15.5C15.2239 23 15 22.7933 15 22.5385V17.4615C15 17.2067 15.2239 17 15.5 17H17C17.5523 17 18 17.4133 18 17.9231V22.0769C18 22.5868 17.5523 23 17 23ZM17 17.9231H16V22.0769H17V17.9231Z" fill="#2081DA"/>
<path d="M19.5 23C19.7761 23 20 22.7933 20 22.5385V20.2308H21.5C21.7761 20.2308 22 20.0241 22 19.7692C22 19.5143 21.7761 19.3077 21.5 19.3077H20V17.9231H21.5C21.7761 17.9231 22 17.7164 22 17.4615C22 17.2067 21.7761 17 21.5 17H19.5C19.2239 17 19 17.2067 19 17.4615V22.5385C19 22.7933 19.2239 23 19.5 23Z" fill="#2081DA"/>
<path fill-rule="evenodd" clip-rule="evenodd" d="M20 26.1935C20 25.9352 20.2239 25.7258 20.5 25.7258C20.7761 25.7258 21 25.9352 21 26.1935V28.5323C21 28.7906 20.7761 29 20.5 29H0.5C0.223875 29 0 28.7906 0 28.5323V0.467742C0 0.209431 0.223875 0 0.5 0H15.5C15.505 0 15.5098 0.00118155 15.5146 0.00236076C15.5198 0.00364227 15.525 0.00492101 15.5305 0.00467742C15.5745 0.00701613 15.6179 0.0150262 15.6595 0.0285323C15.6775 0.0335605 15.6952 0.0394657 15.7125 0.0463064C15.7502 0.063379 15.7854 0.085129 15.817 0.110855C15.8316 0.118865 15.8458 0.127635 15.8595 0.137048L20.8535 4.81447C20.9418 4.89884 20.9922 5.01168 20.9945 5.12973C20.9971 5.14259 20.9989 5.15551 21 5.16855V13.5645C21 13.8228 20.7761 14.0323 20.5 14.0323C20.2239 14.0323 20 13.8228 20 13.5645V5.6129H15.5C15.2239 5.6129 15 5.40347 15 5.14516V0.935484H1V28.0645H20V26.1935ZM19.273 4.67742L16 1.59734V4.67742H19.273Z" fill="#2081DA"/>
<path fill-rule="evenodd" clip-rule="evenodd" d="M9.48276 15H22.5172C22.7838 15 23 15.2132 23 15.4762V24.5238C23 24.7868 22.7838 25 22.5172 25H9.48276C9.21616 25 9 24.7868 9 24.5238V15.4762C9 15.2132 9.21616 15 9.48276 15ZM9.96552 24.0476H22.0345V15.9524H9.96552V24.0476Z" fill="#2081DA"/>
</svg>
