<svg width="51" height="47" viewBox="0 0 51 47" fill="none" xmlns="http://www.w3.org/2000/svg">
<path fill-rule="evenodd" clip-rule="evenodd" d="M49.3496 15.1414H37.5001L29.3707 1.23645C29.0366 0.664746 28.497 0.256031 27.8514 0.0852661C27.2059 -0.0855972 26.5316 0.00214607 25.9527 0.332167C25.787 0.426599 25.6368 0.539328 25.4999 0.664647C25.363 0.539328 25.2127 0.426599 25.047 0.332167C24.4683 0.00214607 23.7939 -0.0855972 23.1485 0.0852661C22.5029 0.25613 21.9633 0.664942 21.6292 1.23645L13.4998 15.1414H1.65032C0.740295 15.1414 0 15.8725 0 16.7712V20.9769C0 21.8756 0.740295 22.6067 1.65032 22.6067H1.75671L3.24487 43.9158C3.36569 45.6452 4.83533 47 6.59084 47H44.4092C46.1646 47 47.6343 45.6453 47.7551 43.9158L49.2433 22.6067H49.3497C50.2597 22.6067 51 21.8756 51 20.9769V16.7712C50.9999 15.8725 50.2596 15.1414 49.3496 15.1414ZM26.3297 2.24039C26.3921 2.00991 26.542 1.81721 26.7513 1.6978C26.8908 1.61831 27.0455 1.57759 27.2024 1.57759C27.281 1.57759 27.3602 1.58782 27.4381 1.60838C27.6716 1.67015 27.8668 1.818 27.9877 2.02487L36.5054 16.5939C36.7548 17.0208 36.6063 17.5683 36.1742 17.8147C35.9649 17.9341 35.7208 17.9658 35.4875 17.9041C35.254 17.8424 35.0588 17.6945 34.9379 17.4877L26.4202 2.91853C26.2992 2.71176 26.267 2.47106 26.3297 2.24039ZM31.7218 15.1413L25.5 4.49919L19.2781 15.1413H31.7218ZM14.4946 16.5941L23.0123 2.02496C23.1331 1.81829 23.3283 1.67035 23.5619 1.60858C23.7954 1.5469 24.0393 1.57848 24.2486 1.69799C24.4578 1.81731 24.6077 2.01001 24.6702 2.24068C24.7329 2.47125 24.7007 2.71206 24.5799 2.91882L16.0622 17.488C15.9414 17.6947 15.7462 17.8426 15.5126 17.9043C15.2792 17.966 15.0352 17.9344 14.8259 17.8149C14.3937 17.5685 14.2451 17.0208 14.4946 16.5941ZM49.3497 21.0294C49.3791 21.0294 49.4029 21.0057 49.4029 20.9768H49.4027V16.7711C49.4027 16.7421 49.3789 16.7185 49.3495 16.7185H38.2016C38.3284 17.6792 37.8736 18.6669 36.9724 19.1807C36.5869 19.4006 36.159 19.5129 35.7254 19.5129C35.508 19.5129 35.2893 19.4846 35.0737 19.4276C34.4281 19.2568 33.8885 18.8481 33.5545 18.2764L32.6437 16.7185H18.3559L17.4452 18.2764C17.1111 18.8479 16.5715 19.2568 15.9259 19.4276C15.7103 19.4846 15.4915 19.5129 15.2742 19.5129C14.8406 19.5129 14.4128 19.4006 14.0273 19.1807C13.1261 18.667 12.6713 17.6792 12.7981 16.7185H1.65032C1.62094 16.7185 1.59713 16.7421 1.59713 16.7711V20.9768C1.59713 21.0057 1.62094 21.0294 1.65032 21.0294H42.5354C42.9765 21.0294 43.334 21.3824 43.334 21.818C43.334 22.2535 42.9764 22.6066 42.5354 22.6066H3.35763L4.83822 43.8072C4.90147 44.7132 5.67135 45.4228 6.59084 45.4228H44.4092C45.3287 45.4228 46.0985 44.7132 46.1618 43.8072L47.6424 22.6066H45.9425C45.5015 22.6066 45.144 22.2535 45.144 21.818C45.144 21.3824 45.5016 21.0294 45.9425 21.0294H49.3497Z" fill="#7ED321"/>
<path d="M28.2709 29.3398C27.7894 29.3398 27.3989 29.6851 27.3989 30.1111V39.1604C27.3989 39.6424 26.9556 40.0345 26.4106 40.0345C25.8657 40.0345 25.4224 39.6424 25.4224 39.1604V26.8204C25.4224 26.3384 25.8657 25.9463 26.4106 25.9463C26.9556 25.9463 27.3989 26.3384 27.3989 26.8204C27.3989 27.2463 27.7893 27.5917 28.2709 27.5917C28.7525 27.5917 29.1429 27.2464 29.1429 26.8204C29.1429 25.4878 27.9173 24.4038 26.4107 24.4038C24.9042 24.4038 23.6786 25.4878 23.6786 26.8204V39.1603C23.6786 40.4928 24.9042 41.5769 26.4107 41.5769C27.9173 41.5769 29.1429 40.4928 29.1429 39.1603V30.111C29.1429 29.6852 28.7525 29.3398 28.2709 29.3398Z" fill="#7ED321"/>
<path d="M34.6459 29.3398C34.1644 29.3398 33.7739 29.6851 33.7739 30.1111V39.1604C33.7739 39.6424 33.3306 40.0345 32.7856 40.0345C32.2407 40.0345 31.7974 39.6424 31.7974 39.1604V26.8204C31.7974 26.3384 32.2407 25.9463 32.7856 25.9463C33.3306 25.9463 33.7739 26.3384 33.7739 26.8204C33.7739 27.2463 34.1643 27.5917 34.6459 27.5917C35.1275 27.5917 35.5179 27.2464 35.5179 26.8204C35.5179 25.4878 34.2923 24.4038 32.7857 24.4038C31.2792 24.4038 30.0536 25.4878 30.0536 26.8204V39.1603C30.0536 40.4928 31.2792 41.5769 32.7857 41.5769C34.2923 41.5769 35.5179 40.4928 35.5179 39.1603V30.111C35.5179 29.6852 35.1275 29.3398 34.6459 29.3398Z" fill="#7ED321"/>
<path d="M41.9316 29.3398C41.4501 29.3398 41.0596 29.6851 41.0596 30.1111V39.1604C41.0596 39.6424 40.6163 40.0345 40.0713 40.0345C39.5264 40.0345 39.0831 39.6424 39.0831 39.1604V26.8204C39.0831 26.3384 39.5264 25.9463 40.0713 25.9463C40.6163 25.9463 41.0596 26.3384 41.0596 26.8204C41.0596 27.2463 41.45 27.5917 41.9316 27.5917C42.4131 27.5917 42.8036 27.2464 42.8036 26.8204C42.8036 25.4878 41.578 24.4038 40.0714 24.4038C38.5649 24.4038 37.3393 25.4878 37.3393 26.8204V39.1603C37.3393 40.4928 38.5649 41.5769 40.0714 41.5769C41.578 41.5769 42.8036 40.4928 42.8036 39.1603V30.111C42.8035 29.6852 42.4131 29.3398 41.9316 29.3398Z" fill="#7ED321"/>
<path d="M13.6994 29.3398C13.2179 29.3398 12.8274 29.6851 12.8274 30.1111V39.1604C12.8274 39.6424 12.3841 40.0345 11.8392 40.0345C11.2942 40.0345 10.8509 39.6424 10.8509 39.1604V26.8204C10.8509 26.3384 11.2942 25.9463 11.8392 25.9463C12.3841 25.9463 12.8274 26.3384 12.8274 26.8204C12.8274 27.2463 13.2178 27.5917 13.6994 27.5917C14.181 27.5917 14.5714 27.2464 14.5714 26.8204C14.5714 25.4878 13.3458 24.4038 11.8393 24.4038C10.3327 24.4038 9.10712 25.4878 9.10712 26.8204V39.1603C9.10712 40.4928 10.3327 41.5769 11.8393 41.5769C13.3458 41.5769 14.5714 40.4928 14.5714 39.1603V30.111C14.5714 29.6852 14.1809 29.3398 13.6994 29.3398Z" fill="#7ED321"/>
<path d="M20.9852 29.3398C20.5037 29.3398 20.1132 29.6851 20.1132 30.1111V39.1604C20.1132 39.6424 19.6698 40.0345 19.1249 40.0345C18.58 40.0345 18.1367 39.6424 18.1367 39.1604V26.8204C18.1367 26.3384 18.58 25.9463 19.1249 25.9463C19.6698 25.9463 20.1132 26.3384 20.1132 26.8204C20.1132 27.2463 20.5036 27.5917 20.9852 27.5917C21.4668 27.5917 21.8572 27.2464 21.8572 26.8204C21.8572 25.4878 20.6316 24.4038 19.125 24.4038C17.6185 24.4038 16.3929 25.4878 16.3929 26.8204V39.1603C16.3929 40.4928 17.6185 41.5769 19.125 41.5769C20.6316 41.5769 21.8572 40.4928 21.8572 39.1603V30.111C21.8572 29.6852 21.4667 29.3398 20.9852 29.3398Z" fill="#7ED321"/>
</svg>
