<svg width="62" height="39" viewBox="0 0 62 39" fill="none" xmlns="http://www.w3.org/2000/svg">
<path fill-rule="evenodd" clip-rule="evenodd" d="M56.0543 10.1471L57.6599 16.5335C60.1138 16.9049 62.0001 19.0172 62 21.5594V31.8565C62 32.3897 61.5653 32.8219 61.0292 32.8219H57.8562C57.8564 32.8433 57.8579 32.8645 57.8579 32.8862C57.8579 36.2574 55.0997 39 51.7097 39C48.3196 39 45.5615 36.2574 45.5615 32.8862C45.5615 32.8646 45.5629 32.8433 45.5632 32.8219H23.6851C23.6852 32.8315 23.6856 32.8411 23.686 32.8508V32.8509V32.8509C23.6864 32.8626 23.6868 32.8743 23.6868 32.8862C23.6868 36.2574 20.9287 39 17.5386 39C14.1486 39 11.3905 36.2574 11.3905 32.8862C11.3905 32.8744 11.3909 32.8627 11.3913 32.851C11.3917 32.8413 11.392 32.8316 11.3922 32.8219H6.1483C5.04199 32.8219 4.14202 31.9269 4.14202 30.8268V28.703H0.97081C0.434606 28.703 0 28.2708 0 27.7376C0 27.2044 0.434727 26.7722 0.97081 26.7722H10.2902C10.8264 26.7722 11.261 27.2044 11.261 27.7376C11.261 28.2708 10.8263 28.703 10.2902 28.703H6.08352V30.8268C6.08352 30.8623 6.11246 30.8911 6.14818 30.8911H11.7283C12.562 28.4968 14.851 26.7722 17.5386 26.7722C20.2263 26.7722 22.5151 28.4968 23.349 30.8911H43.4903V23.6189C43.4903 23.0857 43.925 22.6536 44.4611 22.6536C44.9973 22.6536 45.4319 23.0859 45.4319 23.6189V30.8913H45.8993C46.7331 28.4971 49.022 26.7724 51.7097 26.7724C54.3974 26.7724 56.6862 28.4971 57.52 30.8913H60.0584V26.6438H58.9581C57.2808 26.6438 55.9164 25.287 55.9164 23.6191V21.5597C55.9164 21.0265 56.3511 20.5943 56.8872 20.5943H59.9058C59.4948 19.3269 58.2983 18.4072 56.8891 18.4062L56.8864 18.4063L56.8839 18.4061H45.4322V19.5004C45.4322 20.0336 44.9974 20.4658 44.4614 20.4658C43.9251 20.4658 43.4905 20.0335 43.4905 19.5004V1.99508C43.4905 1.95956 43.4616 1.93078 43.4259 1.93078H6.14818C6.11246 1.93078 6.08352 1.95956 6.08352 1.99508V19.5002C6.08352 20.0334 5.64879 20.4656 5.11271 20.4656C4.5765 20.4656 4.1419 20.0333 4.1419 19.5002V1.99508C4.1419 0.894943 5.04187 0 6.14818 0H43.426C44.5323 0 45.4323 0.894943 45.4323 1.99508V4.119H52.7454C54.9935 4.119 56.8226 5.93779 56.8226 8.17346V9.20315C56.8226 9.66712 56.4933 10.0544 56.0543 10.1471ZM52.7454 6.04966H45.4323V8.23777H54.8811V8.17346C54.8811 7.0024 53.923 6.04966 52.7454 6.04966ZM45.4323 16.4754V10.1684H54.0584L55.644 16.4754H45.4323ZM13.332 32.8864C13.332 35.1931 15.2191 37.0696 17.5386 37.0696C19.8582 37.0696 21.7453 35.1931 21.7453 32.8864C21.7453 30.5797 19.8582 28.7032 17.5386 28.7032C15.2191 28.7032 13.332 30.5797 13.332 32.8864ZM51.7099 37.0696C49.3904 37.0696 47.5032 35.1931 47.5032 32.8864C47.5032 30.5797 49.3904 28.7032 51.7099 28.7032C54.0295 28.7032 55.9166 30.5797 55.9166 32.8864C55.9166 35.1931 54.0295 37.0696 51.7099 37.0696ZM58.9584 24.7131H60.0585V22.5248H57.8581V23.6189C57.8581 24.2222 58.3517 24.7131 58.9584 24.7131Z" fill="#7ED321"/>
<path d="M17.7794 30.8372C16.5225 30.8372 15.5 31.8543 15.5 33.1046C15.5 34.3549 16.5225 35.372 17.7794 35.372C19.0363 35.372 20.0588 34.3549 20.0588 33.1046C20.0588 31.8543 19.0363 30.8372 17.7794 30.8372Z" fill="#7ED321"/>
<path d="M51.5147 30.8372C50.2578 30.8372 49.2353 31.8543 49.2353 33.1046C49.2353 34.3549 50.2578 35.372 51.5147 35.372C52.7716 35.372 53.7941 34.3549 53.7941 33.1046C53.7941 31.8543 52.7716 30.8372 51.5147 30.8372Z" fill="#7ED321"/>
<path d="M40.0602 27.2092H25.5869C25.0517 27.2092 24.6177 27.6153 24.6177 28.1162C24.6177 28.6172 25.0516 29.0232 25.5869 29.0232H40.0602C40.5954 29.0232 41.0294 28.6172 41.0294 28.1162C41.0294 27.6153 40.5955 27.2092 40.0602 27.2092Z" fill="#7ED321"/>
<path d="M15.4261 22.6743H2.80927C2.26495 22.6743 1.82355 23.0803 1.82355 23.5813C1.82355 24.0822 2.26483 24.4883 2.80927 24.4883H15.4261C15.9704 24.4883 16.4118 24.0822 16.4118 23.5813C16.4118 23.0803 15.9704 22.6743 15.4261 22.6743Z" fill="#7ED321"/>
<path d="M34.3633 9.36745C33.9849 8.97059 33.371 8.97059 32.9926 9.36758L24.3736 18.4066L19.8898 13.7043C19.5113 13.3073 18.8976 13.3073 18.5192 13.7043C18.1407 14.1013 18.1407 14.7448 18.5192 15.1418L23.6883 20.5628C23.8775 20.7614 24.1256 20.8605 24.3736 20.8605C24.6215 20.8605 24.8697 20.7614 25.0588 20.5628L34.3631 10.805C34.7417 10.4079 34.7417 9.76443 34.3633 9.36745Z" fill="#7ED321"/>
</svg>
