<svg width="51" height="51" viewBox="0 0 51 51" fill="none" xmlns="http://www.w3.org/2000/svg">
<path fill-rule="evenodd" clip-rule="evenodd" d="M36.2207 20.0935C37.8419 20.0935 39.1607 21.4314 39.1607 23.0762C39.1607 24.102 38.6476 25.0085 37.8682 25.5456C38.1439 25.9548 38.3054 26.4491 38.3054 26.9811C38.3054 27.9008 37.8228 28.7083 37.1009 29.1566C37.3228 29.5365 37.4501 29.9794 37.4501 30.4519C37.4501 31.3717 36.9675 32.1792 36.2457 32.6275C36.4675 33.0074 36.5949 33.4502 36.5949 33.9228C36.5949 35.3283 35.4679 36.4717 34.0825 36.4717H20.9879C20.7048 36.9885 20.1616 37.3394 19.5387 37.3394H14.4071C13.4933 37.3394 12.75 36.5852 12.75 35.6582V21.7749C12.75 20.8479 13.4933 20.0937 14.4071 20.0937H19.5387C19.8179 20.0937 20.0806 20.1648 20.3116 20.289C20.7824 19.9088 21.1627 19.5301 21.4166 19.256C21.9005 18.7332 22.4517 18.3674 23.0548 18.1687C24.593 17.662 25.6348 16.8619 26.2379 16.2799C26.9745 15.5692 27.2756 14.9706 27.3041 14.797C27.3077 14.004 27.6148 13.2609 28.1697 12.7031C28.7245 12.1454 29.4596 11.8394 30.2428 11.8394L30.2709 11.8395C31.0807 11.8471 31.8273 12.1948 32.3733 12.8188C32.9707 13.5014 33.2552 14.4285 33.1539 15.3626C32.9882 16.8919 32.1303 18.5965 30.8175 20.0935H36.2207ZM35.793 24.432H36.2207C36.9575 24.432 37.5568 23.8238 37.5568 23.0762C37.5568 22.3286 36.9574 21.7204 36.2205 21.7204H28.8182C28.4785 21.7204 28.1757 21.5033 28.0623 21.1785C27.949 20.8537 28.0497 20.4916 28.3137 20.2748C30.1104 18.7991 31.3845 16.8012 31.5597 15.1848C31.6106 14.7141 31.4665 14.2333 31.1739 13.8989C31.0032 13.7039 30.7055 13.4706 30.256 13.4664C29.8911 13.4669 29.5533 13.6023 29.2983 13.8588C29.0463 14.112 28.9076 14.4502 28.9076 14.8111C28.9076 15.4941 28.3592 16.4481 27.4404 17.3633C26.7074 18.0935 25.4373 19.0944 23.5499 19.716C23.2068 19.829 22.8823 20.0488 22.5856 20.3695C22.2719 20.7082 21.7911 21.1856 21.1899 21.6577C21.1903 21.6629 21.1906 21.6682 21.191 21.6734C21.1934 21.7069 21.1958 21.7405 21.1958 21.7746V23.5101C21.1958 23.9594 20.8368 24.3236 20.394 24.3236C19.9511 24.3236 19.5921 23.9593 19.5921 23.5101V21.7746C19.5921 21.7447 19.5682 21.7204 19.5387 21.7204H14.4071C14.3776 21.7204 14.3537 21.7447 14.3537 21.7746V35.6583C14.3537 35.6882 14.3776 35.7125 14.4071 35.7125H19.5387C19.5682 35.7125 19.5921 35.6882 19.5921 35.6583V26.9813C19.5921 26.5319 19.9511 26.1678 20.394 26.1678C20.8368 26.1678 21.1958 26.532 21.1958 26.9813V34.8449H34.0825C34.5836 34.8449 34.9913 34.4313 34.9913 33.9229C34.9913 33.4145 34.5836 33.0009 34.0825 33.0009C33.6396 33.0009 33.2807 32.6366 33.2807 32.1874C33.2807 31.7381 33.6397 31.3739 34.0825 31.3739H34.9378C35.4389 31.3739 35.8465 30.9603 35.8465 30.4519C35.8465 29.9435 35.4389 29.5299 34.9378 29.5299C34.4949 29.5299 34.1359 29.1657 34.1359 28.7164C34.1359 28.2671 34.495 27.9029 34.9378 27.9029H35.793C36.2941 27.9029 36.7018 27.4893 36.7018 26.981C36.7018 26.4726 36.2941 26.059 35.793 26.059C35.3501 26.059 34.9912 25.6947 34.9912 25.2455C34.9912 24.7962 35.3502 24.432 35.793 24.432Z" fill="#7ED321"/>
<path d="M17.3036 31.875C16.8033 31.875 16.3929 32.2854 16.3929 32.7857C16.3929 33.286 16.8033 33.6964 17.3036 33.6964C17.8038 33.6964 18.2143 33.286 18.2143 32.7857C18.2144 32.2856 17.804 31.875 17.3036 31.875Z" fill="#7ED321"/>
<path fill-rule="evenodd" clip-rule="evenodd" d="M50.9484 21.8699L49.5766 25.5L50.9484 29.1299C51.0482 29.3941 51.0011 29.6912 50.8246 29.9116L48.3982 32.9401L48.5811 36.8164C48.5944 37.0983 48.4578 37.3664 48.2219 37.5214L44.9784 39.652L43.9546 43.3951C43.8802 43.6673 43.6674 43.8801 43.3951 43.9546L39.652 44.9784L37.5214 48.2219C37.3665 48.4577 37.0992 48.5936 36.8164 48.5811L32.9401 48.3982L29.9116 50.8246C29.7678 50.9398 29.5912 50.9999 29.4123 50.9999C29.3172 50.9999 29.2217 50.9829 29.1301 50.9484L25.5 49.5765L21.8699 50.9484C21.6059 51.0483 21.3086 51.0012 21.0883 50.8246L18.0598 48.3982L14.1835 48.5811C13.9021 48.5935 13.6334 48.4578 13.4785 48.2219L11.348 44.9784L7.6049 43.9546C7.33267 43.8802 7.1199 43.6674 7.04539 43.3951L6.02161 39.652L2.77813 37.5214C2.54226 37.3665 2.40559 37.0983 2.41894 36.8164L2.60182 32.9401L0.175442 29.9116C-0.00116487 29.6911 -0.04828 29.394 0.051628 29.1299L1.42345 25.5L0.0517276 21.87C-0.0480808 21.6058 -0.000965655 21.3087 0.175542 21.0884L2.60192 18.0598L2.41904 14.1835C2.40569 13.9016 2.54226 13.6335 2.77823 13.4785L6.02171 11.3481L7.04549 7.60494C7.1199 7.33271 7.33267 7.11994 7.605 7.04543L11.3481 6.02165L13.4786 2.77817C13.6334 2.54229 13.9003 2.40563 14.1836 2.41898L18.0599 2.60186L21.0884 0.175474C21.3087 -0.00113297 21.6058 -0.0482482 21.87 0.05166L25.4999 1.42338L29.13 0.0515604C29.3941 -0.0482482 29.6913 -0.00113297 29.9116 0.175375L32.9401 2.60176L36.8164 2.41888C37.0983 2.40603 37.3665 2.54209 37.5214 2.77807L39.652 6.02145L43.3951 7.04524C43.6673 7.11964 43.8801 7.33241 43.9546 7.60474L44.9784 11.3479L48.2219 13.4784C48.4577 13.6333 48.5944 13.9015 48.5811 14.1834L48.3982 18.0597L50.8246 21.0883C51.0012 21.3087 51.0483 21.6058 50.9484 21.8699ZM49.2934 29.2685L47.9759 25.7823C47.9072 25.6004 47.9072 25.3997 47.9758 25.2177L49.2934 21.7314L46.9631 18.8229C46.8415 18.6712 46.7794 18.4804 46.7886 18.2861L46.9643 14.5634L43.8494 12.5173C43.6869 12.4104 43.5688 12.248 43.5175 12.0605L42.5343 8.46566L38.9395 7.48242C38.7518 7.43112 38.5894 7.31299 38.4827 7.15052L36.4366 4.03564L32.7139 4.21135C32.5198 4.22051 32.3287 4.15856 32.177 4.03683L29.2685 1.70657L25.7823 3.0241C25.6004 3.09283 25.3997 3.09283 25.2177 3.0241L21.7315 1.70657L18.823 4.03683C18.6713 4.15846 18.4801 4.22041 18.2861 4.21135L14.5634 4.03564L12.5173 7.15052C12.4104 7.31309 12.2481 7.43112 12.0605 7.48242L8.46572 8.46566L7.48248 12.0605C7.43118 12.2481 7.31304 12.4106 7.15058 12.5173L4.0357 14.5634L4.21141 18.2861C4.22057 18.4803 4.15852 18.6712 4.03689 18.8229L1.70664 21.7314L3.02417 25.2177C3.0929 25.3996 3.0929 25.6004 3.02417 25.7823L1.70664 29.2685L4.03689 32.177C4.15852 32.3287 4.22057 32.5195 4.21141 32.7139L4.0357 36.4366L7.15058 38.4827C7.31314 38.5895 7.43118 38.7519 7.48248 38.9395L8.46572 42.5343L12.0605 43.5175C12.2482 43.5688 12.4106 43.687 12.5173 43.8494L14.5634 46.9643L18.2861 46.7886C18.48 46.7796 18.6713 46.8415 18.823 46.9631L21.7315 49.2934L25.2177 47.9759C25.3087 47.9417 25.4044 47.9244 25.5 47.9244C25.5956 47.9244 25.6913 47.9416 25.7823 47.9759L29.2685 49.2934L32.177 46.9631C32.3287 46.8415 32.5196 46.7796 32.7139 46.7886L36.4366 46.9643L38.4827 43.8494C38.5896 43.6868 38.7519 43.5688 38.9395 43.5175L42.5343 42.5343L43.5175 38.9395C43.5688 38.7518 43.687 38.5893 43.8494 38.4827L46.9643 36.4366L46.7886 32.7139C46.7794 32.5196 46.8415 32.3287 46.9631 32.177L49.2934 29.2685Z" fill="#7ED321"/>
<path d="M40.7771 11.4445C40.5832 11.2335 40.3822 11.0236 40.1793 10.8207C39.9763 10.6179 39.7666 10.4168 39.5556 10.223C39.2388 9.93207 38.7461 9.95305 38.4551 10.27C38.1642 10.5868 38.1852 11.0796 38.5021 11.3705C38.6967 11.5492 38.8905 11.7348 39.0778 11.9221C39.265 12.1093 39.4506 12.3031 39.6295 12.4978C39.7831 12.6651 39.9929 12.75 40.2035 12.75C40.3917 12.75 40.5804 12.6822 40.7299 12.5449C41.0469 12.2541 41.0679 11.7613 40.7771 11.4445Z" fill="#7ED321"/>
<path d="M36.0571 7.72412C32.185 5.27706 27.5232 4.18954 22.9307 4.66117C18.271 5.14005 13.8772 7.21673 10.5584 10.5088C6.90601 14.1319 4.7795 18.945 4.57057 24.0614C4.36295 29.1477 6.06119 34.0859 9.35261 37.9662C9.51136 38.1534 9.73851 38.2499 9.96747 38.2499C10.15 38.2499 10.3334 38.1885 10.484 38.0629C10.8232 37.7797 10.8669 37.2772 10.5814 36.9407C7.54861 33.3651 5.98377 28.8141 6.17507 24.1259C6.36757 19.4104 8.32742 14.9745 11.6938 11.6353C14.7525 8.60092 18.802 6.68688 23.0961 6.24565C27.3302 5.81048 31.6265 6.81286 35.1941 9.06758C35.5682 9.30394 36.0644 9.19485 36.3026 8.82387C36.541 8.45278 36.4309 7.96049 36.0571 7.72412Z" fill="#7ED321"/>
<path d="M42.3649 14.0323C42.1285 13.6582 41.6359 13.5482 41.2651 13.7865C40.894 14.0248 40.7851 14.5211 41.0214 14.895C43.2761 18.4628 44.2783 22.7592 43.8433 26.993C43.4021 31.287 41.4881 35.3364 38.4539 38.3954C35.1145 41.7616 30.6786 43.7215 25.9632 43.914C21.2759 44.1061 16.7241 42.5406 13.1486 39.5079C12.812 39.2224 12.3096 39.266 12.0264 39.6053C11.7431 39.9446 11.7864 40.4511 12.123 40.7366C15.7912 43.8479 20.4042 45.5357 25.1945 45.5356C25.4715 45.5356 25.7497 45.5299 26.0279 45.5186C31.1443 45.3098 35.9572 43.1833 39.5804 39.5309C42.8726 36.2122 44.9493 31.8183 45.428 27.1585C45.8997 22.5658 44.8119 17.9042 42.3649 14.0323Z" fill="#7ED321"/>
</svg>
