<svg width="59" height="45" viewBox="0 0 59 45" fill="none" xmlns="http://www.w3.org/2000/svg">
<path d="M47.9523 0H2.87836C1.29119 0 0 1.31556 0 2.9327V32.8836C0 34.5008 1.29119 35.8163 2.87836 35.8163H31.2945C31.8018 35.8163 32.2132 35.3973 32.2132 34.8803C32.2132 34.3635 31.8019 33.9443 31.2945 33.9443H2.87836C2.30427 33.9443 1.83721 33.4684 1.83721 32.8835V2.9327C1.83721 2.34777 2.30427 1.87189 2.87836 1.87189H47.9523C48.5264 1.87189 48.9935 2.34777 48.9935 2.9327V15.9117C48.9935 16.4286 49.4047 16.8477 49.9121 16.8477C50.4194 16.8477 50.8308 16.4287 50.8308 15.9117V2.9327C50.8307 1.31556 49.5395 0 47.9523 0Z" fill="#7ED321"/>
<path fill-rule="evenodd" clip-rule="evenodd" d="M33.5846 31.6838C33.5846 24.3412 39.2852 18.3674 46.2923 18.3674C53.2993 18.3674 59 24.3411 59 31.6838C59 39.0265 53.2993 45.0001 46.2923 45.0001C39.2853 45.0001 33.5846 39.0263 33.5846 31.6838ZM35.4263 31.6838C35.4263 37.9623 40.3007 43.0702 46.2923 43.0702C52.2837 43.0702 57.1583 37.9623 57.1583 31.6838C57.1583 25.4052 52.2839 20.2973 46.2923 20.2973C40.3007 20.2973 35.4263 25.4052 35.4263 31.6838Z" fill="#7ED321"/>
<path fill-rule="evenodd" clip-rule="evenodd" d="M15.469 7.34692H8.13102C7.15104 7.34692 6.35384 8.1552 6.35384 9.14879V14.7287C6.35384 15.7223 7.15104 16.5306 8.13102 16.5306H15.469C16.449 16.5306 17.2462 15.7223 17.2462 14.7287V9.14879C17.2462 8.1552 16.449 7.34692 15.469 7.34692ZM10.0228 14.7868H8.13102C8.09938 14.7868 8.07374 14.7608 8.07374 14.7287V9.14879C8.07374 9.11671 8.09938 9.09072 8.13102 9.09072H10.0229V14.7868H10.0228ZM15.469 14.7868C15.5006 14.7868 15.5263 14.7608 15.5263 14.7287V9.14868C15.5263 9.1166 15.5006 9.09061 15.469 9.09061H11.7427V11.0668H12.7173C13.1923 11.0668 13.5772 11.4571 13.5772 11.9387C13.5772 12.4203 13.1921 12.8106 12.7173 12.8106H11.7427V14.7868H15.469Z" fill="#7ED321"/>
<path fill-rule="evenodd" clip-rule="evenodd" d="M38.3046 6.42847C37.2327 6.42847 36.2351 6.73817 35.4024 7.26808C34.5452 6.72307 33.5355 6.42847 32.4954 6.42847C29.5925 6.42847 27.2308 8.69429 27.2308 11.4795C27.2308 14.2647 29.5924 16.5305 32.4954 16.5305C33.5676 16.5305 34.5656 16.2206 35.3986 15.6902C36.2559 16.2348 37.2667 16.5305 38.3046 16.5305C41.2075 16.5305 43.5692 14.2647 43.5692 11.4795C43.5692 8.69429 41.2076 6.42847 38.3046 6.42847ZM34.0391 14.4375C33.5742 14.6617 33.0501 14.7887 32.4954 14.7887C30.5934 14.7887 29.0462 13.3042 29.0462 11.4795C29.0462 9.65481 30.5936 8.17015 32.4954 8.17015C33.0367 8.17015 33.5651 8.29258 34.0411 8.52146C33.4122 9.35358 33.04 10.3753 33.04 11.4794C33.04 12.5533 33.3961 13.5845 34.0391 14.4375ZM36.7591 14.4371C37.2353 14.6661 37.7642 14.7887 38.3046 14.7887C40.2066 14.7887 41.7538 13.3042 41.7538 11.4794C41.7538 9.65459 40.2063 8.17004 38.3045 8.17004C36.4027 8.17004 34.8553 9.65459 34.8553 11.4794C34.8553 12.1186 35.0483 12.7346 35.3995 13.2614C35.7439 12.7467 35.9446 12.1352 35.9446 11.4794C35.9446 10.9984 36.3509 10.6085 36.8523 10.6085C37.3536 10.6085 37.76 10.9985 37.76 11.4794C37.76 12.5834 37.388 13.605 36.7591 14.4371Z" fill="#7ED321"/>
<path d="M14.569 22.0408H7.2156C6.73974 22.0408 6.35384 22.4519 6.35384 22.9591C6.35384 23.4664 6.73963 23.8775 7.2156 23.8775H14.569C15.0449 23.8775 15.4308 23.4664 15.4308 22.9591C15.4308 22.4519 15.0449 22.0408 14.569 22.0408Z" fill="#7ED321"/>
<path d="M30.8482 28.4695H7.27472C6.76621 28.4695 6.35384 28.8806 6.35384 29.3878C6.35384 29.8951 6.7661 30.3062 7.27472 30.3062H30.8484C31.3569 30.3062 31.7692 29.8951 31.7692 29.3878C31.7692 28.8806 31.3569 28.4695 30.8482 28.4695Z" fill="#7ED321"/>
<path d="M25.4613 22.0408H18.1079C17.6321 22.0408 17.2462 22.4519 17.2462 22.9591C17.2462 23.4664 17.6319 23.8775 18.1079 23.8775H25.4613C25.9372 23.8775 26.3231 23.4664 26.3231 22.9591C26.3231 22.4519 25.9372 22.0408 25.4613 22.0408Z" fill="#7ED321"/>
<path d="M32.7062 22.0408H30.8323C30.3472 22.0408 29.9538 22.4519 29.9538 22.9591C29.9538 23.4664 30.3471 23.8775 30.8323 23.8775H32.7062C33.1912 23.8775 33.5846 23.4664 33.5846 22.9591C33.5846 22.4519 33.1914 22.0408 32.7062 22.0408Z" fill="#7ED321"/>
<path d="M53.2869 26.8877C52.931 26.5475 52.354 26.5475 51.9982 26.8877L43.8944 34.6321L39.6787 30.6033C39.3228 30.2632 38.7458 30.2632 38.39 30.6033C38.0341 30.9434 38.0341 31.4947 38.39 31.8349L43.2501 36.4795C43.428 36.6497 43.6613 36.7346 43.8944 36.7346C44.1275 36.7346 44.3608 36.6497 44.5387 36.4795L53.2868 28.1192C53.6428 27.7791 53.6428 27.2278 53.2869 26.8877Z" fill="#7ED321"/>
</svg>
