<svg width="20" height="20" viewBox="0 0 20 20" fill="none" xmlns="http://www.w3.org/2000/svg">
<path fill-rule="evenodd" clip-rule="evenodd" d="M13.2711 10.5454C14.6855 11.0335 15.9819 11.8398 17.0711 12.9289C18.9598 14.8177 20 17.3289 20 20H18.4375C18.4375 15.3475 14.6525 11.5625 10 11.5625C5.34754 11.5625 1.5625 15.3475 1.5625 20H0C0 17.3289 1.0402 14.8177 2.92895 12.9289C4.01813 11.8398 5.31453 11.0335 6.72898 10.5454C5.21402 9.50199 4.21875 7.75578 4.21875 5.78125C4.21875 2.59348 6.81223 0 10 0C13.1878 0 15.7812 2.59348 15.7812 5.78125C15.7812 7.75578 14.786 9.50199 13.2711 10.5454ZM6 6C6 8.20563 7.79441 10 10 10C12.2056 10 14 8.20563 14 6C14 3.79437 12.2056 2 10 2C7.79441 2 6 3.79437 6 6Z" fill="#2081DA"/>
</svg>
