<svg width="21" height="28" viewBox="0 0 21 28" fill="none" xmlns="http://www.w3.org/2000/svg">
<path fill-rule="evenodd" clip-rule="evenodd" d="M16.0417 0H1.74201C0.781861 0 0 0.771066 0 1.71712V26.2826C0 27.2301 0.781861 28 1.74201 28H19.2579C20.2189 28 21 27.2301 21 26.2826V5.30946L16.0417 0ZM16.4529 2.56947L18.6262 4.89718H16.4529V2.56947ZM19.2571 26.5581C19.4113 26.5581 19.5369 26.4339 19.5369 26.2827V6.33834H15.7213C15.3177 6.33834 14.989 6.01603 14.989 5.61845V1.44265H1.74201C1.58805 1.44265 1.46314 1.56552 1.46314 1.71712V26.2827C1.46314 26.4339 1.58805 26.5581 1.74201 26.5581H19.2571ZM4.04412 7.66901H16.4685C16.7712 7.66901 17.0167 7.91094 17.0167 8.20921C17.0167 8.50749 16.7712 8.74942 16.4685 8.74942H4.04412C3.74152 8.74942 3.49598 8.50749 3.49598 8.20921C3.49598 7.911 3.74152 7.66901 4.04412 7.66901ZM16.4685 12.3796C16.7712 12.3796 17.0167 12.1376 17.0167 11.8394C17.0167 11.5412 16.7712 11.2992 16.4685 11.2992H4.04412C3.74152 11.2992 3.49598 11.5411 3.49598 11.8394C3.49598 12.1377 3.74152 12.3796 4.04412 12.3796H16.4685ZM17.0167 15.3507C17.0167 15.649 16.7712 15.8909 16.4685 15.8909H4.04412C3.74152 15.8909 3.49598 15.649 3.49598 15.3507C3.49598 15.0524 3.74152 14.8105 4.04412 14.8105H16.4685C16.7712 14.8105 17.0167 15.0524 17.0167 15.3507ZM16.4685 19.462C16.7712 19.462 17.0167 19.2201 17.0167 18.9218C17.0167 18.6235 16.7712 18.3816 16.4685 18.3816H4.04412C3.74152 18.3816 3.49598 18.6235 3.49598 18.9218C3.49598 19.2201 3.74152 19.462 4.04412 19.462H16.4685Z" fill="#616F7C"/>
</svg>
