<svg width="16" height="18" viewBox="0 0 16 18" fill="none" xmlns="http://www.w3.org/2000/svg">
<path d="M1.5 5.21723V1.5C1.5 1.22386 1.72386 1 2 1H14C14.2761 1 14.5 1.22386 14.5 1.5V5.21723C14.5 5.29086 14.4675 5.36074 14.4113 5.40824L9.92052 9.20037C9.69551 9.39038 9.56569 9.66991 9.56569 9.96441V16.5299C9.56569 16.7302 9.34199 16.8492 9.17594 16.7372L6.54456 14.9632C6.47563 14.9167 6.43431 14.8391 6.43431 14.7559V9.96441C6.43431 9.66991 6.30449 9.39038 6.07948 9.20037L1.58871 5.40824C1.53245 5.36074 1.5 5.29086 1.5 5.21723Z" stroke="white" stroke-width="1.4"/>
</svg>
