<svg width="34" height="31" viewBox="0 0 34 31" fill="none" xmlns="http://www.w3.org/2000/svg">
<path d="M17.4825 22C18.308 22 19 22.684 19 23.5C19 24.316 18.308 25 17.4825 25C16.6873 25 15.965 24.316 16.0014 23.536C15.965 22.678 16.6509 22 17.4825 22Z" fill="#FF0F00"/>
<path fill-rule="evenodd" clip-rule="evenodd" d="M0.813389 21.9377C-0.276932 23.8199 -0.269939 26.0715 0.82737 27.9606C1.93167 29.8637 3.89564 31 6.08326 31H27.9456C30.1262 31 32.0762 29.8777 33.1665 28.0094C34.2708 26.1203 34.2778 23.8547 33.1875 21.9517L22.2284 3.02541C21.145 1.13627 19.1881 0 16.9934 0C14.7988 0 12.8418 1.1293 11.7585 3.03238L0.813389 21.9377ZM6.09025 28.2604C4.88811 28.2604 3.81177 27.64 3.2037 26.5943C2.60263 25.5557 2.59564 24.3288 3.18274 23.311L14.1348 4.39172C14.7289 3.35305 15.7983 2.73263 16.9934 2.73263C18.1956 2.73263 19.2579 3.34608 19.852 4.38475L30.8111 23.304C31.4122 24.3497 31.4052 25.5905 30.8041 26.6292C30.2101 27.6539 29.1407 28.2604 27.9525 28.2604H6.09025Z" fill="#FF0F00"/>
<path d="M17.8535 9.0488C18.5604 9.28386 19 10.0305 19 10.9362C18.9644 11.4824 18.9347 12.0355 18.899 12.5817C18.798 14.6627 18.697 16.7022 18.596 18.7832C18.5604 19.4884 18.0911 20 17.4851 20C16.8792 20 16.404 19.4538 16.3743 18.7417C16.3743 18.3131 16.3743 17.919 16.3386 17.4834C16.2733 16.1491 16.202 14.8148 16.1366 13.4804C16.101 12.6162 16.0356 11.752 16 10.8878C16 10.5767 16.0356 10.3002 16.1366 10.0236C16.4396 9.24929 17.1465 8.85521 17.8535 9.0488Z" fill="#FF0F00"/>
</svg>
